<?xml version="1.0" encoding="UTF-8" standalone="no"?><svg xmlns="http://www.w3.org/2000/svg" xmlns:xlink="http://www.w3.org/1999/xlink" contentScriptType="application/ecmascript" contentStyleType="text/css" height="175px" preserveAspectRatio="none" style="width:332px;height:175px;" version="1.1" viewBox="0 0 332 175" width="332px" zoomAndPan="magnify"><defs><filter height="300%" id="f1fetghx3zdc2g" width="300%" x="-1" y="-1"><feGaussianBlur result="blurOut" stdDeviation="2.0"/><feColorMatrix in="blurOut" result="blurOut2" type="matrix" values="0 0 0 0 0 0 0 0 0 0 0 0 0 0 0 0 0 0 .4 0"/><feOffset dx="4.0" dy="4.0" in="blurOut2" result="blurOut3"/><feBlend in="SourceGraphic" in2="blurOut3" mode="normal"/></filter></defs><g><!--MD5=[219898b7f8d5c969bf80bd91dd512ee8]
class MyService--><rect fill="#DDEEE8" filter="url(#f1fetghx3zdc2g)" height="48" id="MyService" style="stroke: #225C4D; stroke-width: 1.5;" width="93" x="6" y="8"/><ellipse cx="21" cy="24" fill="#ADD1B2" rx="11" ry="11" style="stroke: #225C4D; stroke-width: 1.0;"/><path d="M23.9688,29.6406 Q23.3906,29.9375 22.75,30.0781 Q22.1094,30.2344 21.4063,30.2344 Q18.9063,30.2344 17.5781,28.5938 Q16.2656,26.9375 16.2656,23.8125 Q16.2656,20.6875 17.5781,19.0313 Q18.9063,17.375 21.4063,17.375 Q22.1094,17.375 22.75,17.5313 Q23.4063,17.6875 23.9688,17.9844 L23.9688,20.7031 Q23.3438,20.125 22.75,19.8594 Q22.1563,19.5781 21.5313,19.5781 Q20.1875,19.5781 19.5,20.6563 Q18.8125,21.7188 18.8125,23.8125 Q18.8125,25.9063 19.5,26.9844 Q20.1875,28.0469 21.5313,28.0469 Q22.1563,28.0469 22.75,27.7813 Q23.3438,27.5 23.9688,26.9219 L23.9688,29.6406 Z "/><text fill="#000000" font-family="sans-serif" font-size="12" lengthAdjust="spacingAndGlyphs" textLength="61" x="35" y="28.1543">MyService</text><line style="stroke: #225C4D; stroke-width: 1.5;" x1="7" x2="98" y1="40" y2="40"/><line style="stroke: #225C4D; stroke-width: 1.5;" x1="7" x2="98" y1="48" y2="48"/><!--MD5=[94d3e4af53c3d62d16f94c1107482528]
class UsedService--><rect fill="#DDEEE8" filter="url(#f1fetghx3zdc2g)" height="48" id="UsedService" style="stroke: #225C4D; stroke-width: 1.5;" width="108" x="134.5" y="8"/><ellipse cx="149.5" cy="24" fill="#B4A7E5" rx="11" ry="11" style="stroke: #225C4D; stroke-width: 1.0;"/><path d="M145.4219,19.7656 L145.4219,17.6094 L152.8125,17.6094 L152.8125,19.7656 L150.3438,19.7656 L150.3438,27.8438 L152.8125,27.8438 L152.8125,30 L145.4219,30 L145.4219,27.8438 L147.8906,27.8438 L147.8906,19.7656 L145.4219,19.7656 Z "/><text fill="#000000" font-family="sans-serif" font-size="12" font-style="italic" lengthAdjust="spacingAndGlyphs" textLength="76" x="163.5" y="28.1543">UsedService</text><line style="stroke: #225C4D; stroke-width: 1.5;" x1="135.5" x2="241.5" y1="40" y2="40"/><line style="stroke: #225C4D; stroke-width: 1.5;" x1="135.5" x2="241.5" y1="48" y2="48"/><!--MD5=[d0eeb360c93230f40a372f310f64b160]
class ImplA--><rect fill="#DDEEE8" filter="url(#f1fetghx3zdc2g)" height="48" id="ImplA" style="stroke: #225C4D; stroke-width: 1.5;" width="65" x="56" y="116"/><ellipse cx="71" cy="132" fill="#ADD1B2" rx="11" ry="11" style="stroke: #225C4D; stroke-width: 1.0;"/><path d="M73.9688,137.6406 Q73.3906,137.9375 72.75,138.0781 Q72.1094,138.2344 71.4063,138.2344 Q68.9063,138.2344 67.5781,136.5938 Q66.2656,134.9375 66.2656,131.8125 Q66.2656,128.6875 67.5781,127.0313 Q68.9063,125.375 71.4063,125.375 Q72.1094,125.375 72.75,125.5313 Q73.4063,125.6875 73.9688,125.9844 L73.9688,128.7031 Q73.3438,128.125 72.75,127.8594 Q72.1563,127.5781 71.5313,127.5781 Q70.1875,127.5781 69.5,128.6563 Q68.8125,129.7188 68.8125,131.8125 Q68.8125,133.9063 69.5,134.9844 Q70.1875,136.0469 71.5313,136.0469 Q72.1563,136.0469 72.75,135.7813 Q73.3438,135.5 73.9688,134.9219 L73.9688,137.6406 Z "/><text fill="#000000" font-family="sans-serif" font-size="12" lengthAdjust="spacingAndGlyphs" textLength="33" x="85" y="136.1543">ImplA</text><line style="stroke: #225C4D; stroke-width: 1.5;" x1="57" x2="120" y1="148" y2="148"/><line style="stroke: #225C4D; stroke-width: 1.5;" x1="57" x2="120" y1="156" y2="156"/><!--MD5=[44dea7237d6d6925a114feadf3890b9b]
class ImplB--><rect fill="#DDEEE8" filter="url(#f1fetghx3zdc2g)" height="48" id="ImplB" style="stroke: #225C4D; stroke-width: 1.5;" width="65" x="156" y="116"/><ellipse cx="171" cy="132" fill="#ADD1B2" rx="11" ry="11" style="stroke: #225C4D; stroke-width: 1.0;"/><path d="M173.9688,137.6406 Q173.3906,137.9375 172.75,138.0781 Q172.1094,138.2344 171.4063,138.2344 Q168.9063,138.2344 167.5781,136.5938 Q166.2656,134.9375 166.2656,131.8125 Q166.2656,128.6875 167.5781,127.0313 Q168.9063,125.375 171.4063,125.375 Q172.1094,125.375 172.75,125.5313 Q173.4063,125.6875 173.9688,125.9844 L173.9688,128.7031 Q173.3438,128.125 172.75,127.8594 Q172.1563,127.5781 171.5313,127.5781 Q170.1875,127.5781 169.5,128.6563 Q168.8125,129.7188 168.8125,131.8125 Q168.8125,133.9063 169.5,134.9844 Q170.1875,136.0469 171.5313,136.0469 Q172.1563,136.0469 172.75,135.7813 Q173.3438,135.5 173.9688,134.9219 L173.9688,137.6406 Z "/><text fill="#000000" font-family="sans-serif" font-size="12" lengthAdjust="spacingAndGlyphs" textLength="33" x="185" y="136.1543">ImplB</text><line style="stroke: #225C4D; stroke-width: 1.5;" x1="157" x2="220" y1="148" y2="148"/><line style="stroke: #225C4D; stroke-width: 1.5;" x1="157" x2="220" y1="156" y2="156"/><!--MD5=[f262a2db165ccd1a142b7e752dcdfe66]
class ImplC--><rect fill="#DDEEE8" filter="url(#f1fetghx3zdc2g)" height="48" id="ImplC" style="stroke: #225C4D; stroke-width: 1.5;" width="65" x="256" y="116"/><ellipse cx="271" cy="132" fill="#ADD1B2" rx="11" ry="11" style="stroke: #225C4D; stroke-width: 1.0;"/><path d="M273.9688,137.6406 Q273.3906,137.9375 272.75,138.0781 Q272.1094,138.2344 271.4063,138.2344 Q268.9063,138.2344 267.5781,136.5938 Q266.2656,134.9375 266.2656,131.8125 Q266.2656,128.6875 267.5781,127.0313 Q268.9063,125.375 271.4063,125.375 Q272.1094,125.375 272.75,125.5313 Q273.4063,125.6875 273.9688,125.9844 L273.9688,128.7031 Q273.3438,128.125 272.75,127.8594 Q272.1563,127.5781 271.5313,127.5781 Q270.1875,127.5781 269.5,128.6563 Q268.8125,129.7188 268.8125,131.8125 Q268.8125,133.9063 269.5,134.9844 Q270.1875,136.0469 271.5313,136.0469 Q272.1563,136.0469 272.75,135.7813 Q273.3438,135.5 273.9688,134.9219 L273.9688,137.6406 Z "/><text fill="#000000" font-family="sans-serif" font-size="12" lengthAdjust="spacingAndGlyphs" textLength="33" x="285" y="136.1543">ImplC</text><line style="stroke: #225C4D; stroke-width: 1.5;" x1="257" x2="320" y1="148" y2="148"/><line style="stroke: #225C4D; stroke-width: 1.5;" x1="257" x2="320" y1="156" y2="156"/><!--MD5=[6583a34027111f435741cff19d4cf768]
link MyService to UsedService--><path d="M99.25,32 C109.25,32 119.24,32 129.24,32 " fill="none" id="MyService-&gt;UsedService" style="stroke: #225C4D; stroke-width: 1.0;"/><polygon fill="#225C4D" points="134.46,32,125.46,28,129.46,32,125.46,36,134.46,32" style="stroke: #225C4D; stroke-width: 1.0;"/><!--MD5=[59d3cbf50626bbf52fa09cfa8a5451c1]
reverse link UsedService to ImplA--><path d="M152.88,70.75 C138.74,85.74 122.92,102.51 110.5,115.68 " fill="none" id="UsedService&lt;-ImplA" style="stroke: #225C4D; stroke-width: 1.0;"/><polygon fill="none" points="147.99,65.74,166.8,56,158.17,75.35,147.99,65.74" style="stroke: #225C4D; stroke-width: 1.0;"/><!--MD5=[f387df898f764d4ef8af149d7cdf85e8]
reverse link UsedService to ImplB--><path d="M188.5,76.02 C188.5,89.58 188.5,104.04 188.5,115.68 " fill="none" id="UsedService&lt;-ImplB" style="stroke: #225C4D; stroke-width: 1.0;"/><polygon fill="none" points="181.5,76,188.5,56,195.5,76,181.5,76" style="stroke: #225C4D; stroke-width: 1.0;"/><!--MD5=[afb0d59e9e26e05da2ec94219dc57722]
reverse link UsedService to ImplC--><path d="M224.12,70.75 C238.26,85.74 254.08,102.51 266.5,115.68 " fill="none" id="UsedService&lt;-ImplC" style="stroke: #225C4D; stroke-width: 1.0;"/><polygon fill="none" points="218.83,75.35,210.2,56,229.01,65.74,218.83,75.35" style="stroke: #225C4D; stroke-width: 1.0;"/><!--MD5=[08e4657dd41852d38ac07f1a45f735eb]
@startuml
skinparam class {
 BackgroundColor #DDEEE8
 BorderColor #225C4D
 ArrowColor #225C4D
 }
class MyService
interface UsedService

MyService -> UsedService
UsedService <|- - ImplA
UsedService <|- - ImplB
UsedService <|- - ImplC
@enduml

PlantUML version 1.2019.12(Sun Nov 03 11:24:54 CET 2019)
(APACHE source distribution)
Java Runtime: OpenJDK Runtime Environment
JVM: OpenJDK 64-Bit Server VM
Java Version: 11.0.16+8-post-Ubuntu-0ubuntu122.04
Operating System: Linux
Default Encoding: UTF-8
Language: de
Country: DE
--></g></svg>