<?xml version="1.0" encoding="UTF-8" standalone="no"?><svg xmlns="http://www.w3.org/2000/svg" xmlns:xlink="http://www.w3.org/1999/xlink" contentScriptType="application/ecmascript" contentStyleType="text/css" height="342px" preserveAspectRatio="none" style="width:505px;height:342px;" version="1.1" viewBox="0 0 505 342" width="505px" zoomAndPan="magnify"><defs><filter height="300%" id="ff9wfjbm7qv4j" width="300%" x="-1" y="-1"><feGaussianBlur result="blurOut" stdDeviation="2.0"/><feColorMatrix in="blurOut" result="blurOut2" type="matrix" values="0 0 0 0 0 0 0 0 0 0 0 0 0 0 0 0 0 0 .4 0"/><feOffset dx="4.0" dy="4.0" in="blurOut2" result="blurOut3"/><feBlend in="SourceGraphic" in2="blurOut3" mode="normal"/></filter></defs><g><rect fill="#FFFFFF" filter="url(#ff9wfjbm7qv4j)" height="171.5313" style="stroke: #A80036; stroke-width: 1.0;" width="10" x="48" y="98.5625"/><rect fill="#D3D3D3" filter="url(#ff9wfjbm7qv4j)" height="85.2656" style="stroke: #A80036; stroke-width: 1.0;" width="10" x="53" y="156.8281"/><rect fill="#FFFFFF" filter="url(#ff9wfjbm7qv4j)" height="214.6641" style="stroke: #A80036; stroke-width: 1.0;" width="10" x="228" y="69.4297"/><rect fill="#FFFFFF" filter="url(#ff9wfjbm7qv4j)" height="128.3984" style="stroke: #A80036; stroke-width: 1.0;" width="10" x="298" y="127.6953"/><rect fill="#FFFFFF" filter="url(#ff9wfjbm7qv4j)" height="56.1328" style="stroke: #A80036; stroke-width: 1.0;" width="10" x="370.5" y="185.9609"/><line style="stroke: #A80036; stroke-width: 1.0; stroke-dasharray: 5.0,5.0;" x1="53" x2="53" y1="38.2969" y2="302.0938"/><line style="stroke: #A80036; stroke-width: 1.0; stroke-dasharray: 5.0,5.0;" x1="233" x2="233" y1="38.2969" y2="302.0938"/><line style="stroke: #A80036; stroke-width: 1.0; stroke-dasharray: 5.0,5.0;" x1="303" x2="303" y1="38.2969" y2="302.0938"/><line style="stroke: #A80036; stroke-width: 1.0; stroke-dasharray: 5.0,5.0;" x1="375" x2="375" y1="38.2969" y2="302.0938"/><rect fill="#FEFECE" filter="url(#ff9wfjbm7qv4j)" height="30.2969" style="stroke: #A80036; stroke-width: 1.5;" width="86" x="8" y="3"/><text fill="#000000" font-family="sans-serif" font-size="14" lengthAdjust="spacingAndGlyphs" textLength="72" x="15" y="22.9951">FilterChain</text><rect fill="#FEFECE" filter="url(#ff9wfjbm7qv4j)" height="30.2969" style="stroke: #A80036; stroke-width: 1.5;" width="86" x="8" y="301.0938"/><text fill="#000000" font-family="sans-serif" font-size="14" lengthAdjust="spacingAndGlyphs" textLength="72" x="15" y="321.0889">FilterChain</text><rect fill="#FEFECE" filter="url(#ff9wfjbm7qv4j)" height="30.2969" style="stroke: #A80036; stroke-width: 1.5;" width="56" x="203" y="3"/><text fill="#000000" font-family="sans-serif" font-size="14" lengthAdjust="spacingAndGlyphs" textLength="42" x="210" y="22.9951">Filter1</text><rect fill="#FEFECE" filter="url(#ff9wfjbm7qv4j)" height="30.2969" style="stroke: #A80036; stroke-width: 1.5;" width="56" x="203" y="301.0938"/><text fill="#000000" font-family="sans-serif" font-size="14" lengthAdjust="spacingAndGlyphs" textLength="42" x="210" y="321.0889">Filter1</text><rect fill="#FEFECE" filter="url(#ff9wfjbm7qv4j)" height="30.2969" style="stroke: #A80036; stroke-width: 1.5;" width="56" x="273" y="3"/><text fill="#000000" font-family="sans-serif" font-size="14" lengthAdjust="spacingAndGlyphs" textLength="42" x="280" y="22.9951">Filter2</text><rect fill="#FEFECE" filter="url(#ff9wfjbm7qv4j)" height="30.2969" style="stroke: #A80036; stroke-width: 1.5;" width="56" x="273" y="301.0938"/><text fill="#000000" font-family="sans-serif" font-size="14" lengthAdjust="spacingAndGlyphs" textLength="42" x="280" y="321.0889">Filter2</text><rect fill="#FEFECE" filter="url(#ff9wfjbm7qv4j)" height="30.2969" style="stroke: #A80036; stroke-width: 1.5;" width="61" x="343" y="3"/><text fill="#000000" font-family="sans-serif" font-size="14" lengthAdjust="spacingAndGlyphs" textLength="47" x="350" y="22.9951">Servlet</text><rect fill="#FEFECE" filter="url(#ff9wfjbm7qv4j)" height="30.2969" style="stroke: #A80036; stroke-width: 1.5;" width="61" x="343" y="301.0938"/><text fill="#000000" font-family="sans-serif" font-size="14" lengthAdjust="spacingAndGlyphs" textLength="47" x="350" y="321.0889">Servlet</text><rect fill="#FFFFFF" filter="url(#ff9wfjbm7qv4j)" height="171.5313" style="stroke: #A80036; stroke-width: 1.0;" width="10" x="48" y="98.5625"/><rect fill="#D3D3D3" filter="url(#ff9wfjbm7qv4j)" height="85.2656" style="stroke: #A80036; stroke-width: 1.0;" width="10" x="53" y="156.8281"/><rect fill="#FFFFFF" filter="url(#ff9wfjbm7qv4j)" height="214.6641" style="stroke: #A80036; stroke-width: 1.0;" width="10" x="228" y="69.4297"/><rect fill="#FFFFFF" filter="url(#ff9wfjbm7qv4j)" height="128.3984" style="stroke: #A80036; stroke-width: 1.0;" width="10" x="298" y="127.6953"/><rect fill="#FFFFFF" filter="url(#ff9wfjbm7qv4j)" height="56.1328" style="stroke: #A80036; stroke-width: 1.0;" width="10" x="370.5" y="185.9609"/><polygon fill="#225C4D" points="216,65.4297,226,69.4297,216,73.4297,220,69.4297" style="stroke: #225C4D; stroke-width: 1.0;"/><line style="stroke: #225C4D; stroke-width: 1.0;" x1="53" x2="222" y1="69.4297" y2="69.4297"/><text fill="#000000" font-family="sans-serif" font-size="13" lengthAdjust="spacingAndGlyphs" textLength="156" x="60" y="64.3638">doFilter(req, resp, chain)</text><polygon fill="#225C4D" points="69,94.5625,59,98.5625,69,102.5625,65,98.5625" style="stroke: #225C4D; stroke-width: 1.0;"/><line style="stroke: #225C4D; stroke-width: 1.0;" x1="63" x2="227" y1="98.5625" y2="98.5625"/><text fill="#000000" font-family="sans-serif" font-size="13" lengthAdjust="spacingAndGlyphs" textLength="114" x="75" y="93.4966">doFilter(req, resp)</text><polygon fill="#225C4D" points="286,123.6953,296,127.6953,286,131.6953,290,127.6953" style="stroke: #225C4D; stroke-width: 1.0;"/><line style="stroke: #225C4D; stroke-width: 1.0;" x1="58" x2="292" y1="127.6953" y2="127.6953"/><text fill="#000000" font-family="sans-serif" font-size="13" lengthAdjust="spacingAndGlyphs" textLength="156" x="65" y="122.6294">doFilter(req, resp, chain)</text><polygon fill="#225C4D" points="74,152.8281,64,156.8281,74,160.8281,70,156.8281" style="stroke: #225C4D; stroke-width: 1.0;"/><line style="stroke: #225C4D; stroke-width: 1.0;" x1="68" x2="297" y1="156.8281" y2="156.8281"/><text fill="#000000" font-family="sans-serif" font-size="13" lengthAdjust="spacingAndGlyphs" textLength="114" x="80" y="151.7622">doFilter(req, resp)</text><polygon fill="#225C4D" points="358.5,181.9609,368.5,185.9609,358.5,189.9609,362.5,185.9609" style="stroke: #225C4D; stroke-width: 1.0;"/><line style="stroke: #225C4D; stroke-width: 1.0;" x1="63" x2="364.5" y1="185.9609" y2="185.9609"/><text fill="#000000" font-family="sans-serif" font-size="13" lengthAdjust="spacingAndGlyphs" textLength="112" x="70" y="180.895">service(req, resp)</text><line style="stroke: #225C4D; stroke-width: 1.0;" x1="380.5" x2="422.5" y1="215.0938" y2="215.0938"/><line style="stroke: #225C4D; stroke-width: 1.0;" x1="422.5" x2="422.5" y1="215.0938" y2="228.0938"/><line style="stroke: #225C4D; stroke-width: 1.0;" x1="381.5" x2="422.5" y1="228.0938" y2="228.0938"/><polygon fill="#225C4D" points="391.5,224.0938,381.5,228.0938,391.5,232.0938,387.5,228.0938" style="stroke: #225C4D; stroke-width: 1.0;"/><text fill="#000000" font-family="sans-serif" font-size="13" lengthAdjust="spacingAndGlyphs" textLength="106" x="387.5" y="210.0278">doGet(req, resp)</text><polygon fill="#225C4D" points="69,238.0938,59,242.0938,69,246.0938,65,242.0938" style="stroke: #225C4D; stroke-width: 1.0;"/><line style="stroke: #225C4D; stroke-width: 1.0; stroke-dasharray: 2.0,2.0;" x1="63" x2="374.5" y1="242.0938" y2="242.0938"/><polygon fill="#225C4D" points="69,252.0938,59,256.0938,69,260.0938,65,256.0938" style="stroke: #225C4D; stroke-width: 1.0;"/><line style="stroke: #225C4D; stroke-width: 1.0; stroke-dasharray: 2.0,2.0;" x1="63" x2="302" y1="256.0938" y2="256.0938"/><polygon fill="#225C4D" points="216,266.0938,226,270.0938,216,274.0938,220,270.0938" style="stroke: #225C4D; stroke-width: 1.0;"/><line style="stroke: #225C4D; stroke-width: 1.0; stroke-dasharray: 2.0,2.0;" x1="53" x2="222" y1="270.0938" y2="270.0938"/><polygon fill="#225C4D" points="64,280.0938,54,284.0938,64,288.0938,60,284.0938" style="stroke: #225C4D; stroke-width: 1.0;"/><line style="stroke: #225C4D; stroke-width: 1.0; stroke-dasharray: 2.0,2.0;" x1="58" x2="232" y1="284.0938" y2="284.0938"/><!--MD5=[926645b37a741c11c66ca722a3a29adb]
@startuml
skinparam class {
 BackgroundColor #DDEEE8
 BorderColor #225C4D
 ArrowColor #225C4D
 }
FilterChain -> Filter1 : doFilter(req, resp, chain)
activate Filter1
Filter1 -> FilterChain : doFilter(req, resp)
activate FilterChain
FilterChain -> Filter2 : doFilter(req, resp, chain)
activate Filter2
Filter2 -> FilterChain : doFilter(req, resp)
activate FilterChain #LightGrey
FilterChain -> Servlet: service(req, resp)
activate Servlet
Servlet -> Servlet : doGet(req, resp)
Servlet - -> FilterChain
deactivate Servlet
deactivate FilterChain
Filter2 - -> FilterChain
deactivate Filter2
FilterChain - -> Filter1
deactivate FilterChain
Filter1 - -> FilterChain
deactivate Filter1
@enduml

PlantUML version 1.2019.12(Sun Nov 03 11:24:54 CET 2019)
(APACHE source distribution)
Java Runtime: OpenJDK Runtime Environment
JVM: OpenJDK 64-Bit Server VM
Java Version: 11.0.16+8-post-Ubuntu-0ubuntu122.04
Operating System: Linux
Default Encoding: UTF-8
Language: de
Country: DE
--></g></svg>