<?xml version="1.0" encoding="UTF-8" standalone="no"?><svg xmlns="http://www.w3.org/2000/svg" xmlns:xlink="http://www.w3.org/1999/xlink" contentScriptType="application/ecmascript" contentStyleType="text/css" height="227px" preserveAspectRatio="none" style="width:340px;height:227px;" version="1.1" viewBox="0 0 340 227" width="340px" zoomAndPan="magnify"><defs><filter height="300%" id="f8trymb3zhwje" width="300%" x="-1" y="-1"><feGaussianBlur result="blurOut" stdDeviation="2.0"/><feColorMatrix in="blurOut" result="blurOut2" type="matrix" values="0 0 0 0 0 0 0 0 0 0 0 0 0 0 0 0 0 0 .4 0"/><feOffset dx="4.0" dy="4.0" in="blurOut2" result="blurOut3"/><feBlend in="SourceGraphic" in2="blurOut3" mode="normal"/></filter></defs><g><rect fill="#FFFFFF" filter="url(#f8trymb3zhwje)" height="57.1328" style="stroke: #A80036; stroke-width: 1.0;" width="10" x="48" y="98.5625"/><rect fill="#FFFFFF" filter="url(#f8trymb3zhwje)" height="100.2656" style="stroke: #A80036; stroke-width: 1.0;" width="10" x="228" y="69.4297"/><rect fill="#FFFFFF" filter="url(#f8trymb3zhwje)" height="14" style="stroke: #A80036; stroke-width: 1.0;" width="10" x="298" y="127.6953"/><line style="stroke: #A80036; stroke-width: 1.0; stroke-dasharray: 5.0,5.0;" x1="53" x2="53" y1="38.2969" y2="187.6953"/><line style="stroke: #A80036; stroke-width: 1.0; stroke-dasharray: 5.0,5.0;" x1="233" x2="233" y1="38.2969" y2="187.6953"/><line style="stroke: #A80036; stroke-width: 1.0; stroke-dasharray: 5.0,5.0;" x1="303" x2="303" y1="38.2969" y2="187.6953"/><rect fill="#FEFECE" filter="url(#f8trymb3zhwje)" height="30.2969" style="stroke: #A80036; stroke-width: 1.5;" width="86" x="8" y="3"/><text fill="#000000" font-family="sans-serif" font-size="14" lengthAdjust="spacingAndGlyphs" textLength="72" x="15" y="22.9951">FilterChain</text><rect fill="#FEFECE" filter="url(#f8trymb3zhwje)" height="30.2969" style="stroke: #A80036; stroke-width: 1.5;" width="86" x="8" y="186.6953"/><text fill="#000000" font-family="sans-serif" font-size="14" lengthAdjust="spacingAndGlyphs" textLength="72" x="15" y="206.6904">FilterChain</text><rect fill="#FEFECE" filter="url(#f8trymb3zhwje)" height="30.2969" style="stroke: #A80036; stroke-width: 1.5;" width="56" x="203" y="3"/><text fill="#000000" font-family="sans-serif" font-size="14" lengthAdjust="spacingAndGlyphs" textLength="42" x="210" y="22.9951">Filter1</text><rect fill="#FEFECE" filter="url(#f8trymb3zhwje)" height="30.2969" style="stroke: #A80036; stroke-width: 1.5;" width="56" x="203" y="186.6953"/><text fill="#000000" font-family="sans-serif" font-size="14" lengthAdjust="spacingAndGlyphs" textLength="42" x="210" y="206.6904">Filter1</text><rect fill="#FEFECE" filter="url(#f8trymb3zhwje)" height="30.2969" style="stroke: #A80036; stroke-width: 1.5;" width="56" x="273" y="3"/><text fill="#000000" font-family="sans-serif" font-size="14" lengthAdjust="spacingAndGlyphs" textLength="42" x="280" y="22.9951">Filter2</text><rect fill="#FEFECE" filter="url(#f8trymb3zhwje)" height="30.2969" style="stroke: #A80036; stroke-width: 1.5;" width="56" x="273" y="186.6953"/><text fill="#000000" font-family="sans-serif" font-size="14" lengthAdjust="spacingAndGlyphs" textLength="42" x="280" y="206.6904">Filter2</text><rect fill="#FFFFFF" filter="url(#f8trymb3zhwje)" height="57.1328" style="stroke: #A80036; stroke-width: 1.0;" width="10" x="48" y="98.5625"/><rect fill="#FFFFFF" filter="url(#f8trymb3zhwje)" height="100.2656" style="stroke: #A80036; stroke-width: 1.0;" width="10" x="228" y="69.4297"/><rect fill="#FFFFFF" filter="url(#f8trymb3zhwje)" height="14" style="stroke: #A80036; stroke-width: 1.0;" width="10" x="298" y="127.6953"/><polygon fill="#225C4D" points="216,65.4297,226,69.4297,216,73.4297,220,69.4297" style="stroke: #225C4D; stroke-width: 1.0;"/><line style="stroke: #225C4D; stroke-width: 1.0;" x1="53" x2="222" y1="69.4297" y2="69.4297"/><text fill="#000000" font-family="sans-serif" font-size="13" lengthAdjust="spacingAndGlyphs" textLength="156" x="60" y="64.3638">doFilter(req, resp, chain)</text><polygon fill="#225C4D" points="69,94.5625,59,98.5625,69,102.5625,65,98.5625" style="stroke: #225C4D; stroke-width: 1.0;"/><line style="stroke: #225C4D; stroke-width: 1.0;" x1="63" x2="227" y1="98.5625" y2="98.5625"/><text fill="#000000" font-family="sans-serif" font-size="13" lengthAdjust="spacingAndGlyphs" textLength="114" x="75" y="93.4966">doFilter(req, resp)</text><polygon fill="#225C4D" points="286,123.6953,296,127.6953,286,131.6953,290,127.6953" style="stroke: #225C4D; stroke-width: 1.0;"/><line style="stroke: #225C4D; stroke-width: 1.0;" x1="58" x2="292" y1="127.6953" y2="127.6953"/><text fill="#000000" font-family="sans-serif" font-size="13" lengthAdjust="spacingAndGlyphs" textLength="156" x="65" y="122.6294">doFilter(req, resp, chain)</text><polygon fill="#225C4D" points="69,137.6953,59,141.6953,69,145.6953,65,141.6953" style="stroke: #225C4D; stroke-width: 1.0;"/><line style="stroke: #225C4D; stroke-width: 1.0; stroke-dasharray: 2.0,2.0;" x1="63" x2="302" y1="141.6953" y2="141.6953"/><line style="stroke: #A80036; stroke-width: 2.0;" x1="294" x2="312" y1="132.6953" y2="150.6953"/><line style="stroke: #A80036; stroke-width: 2.0;" x1="294" x2="312" y1="150.6953" y2="132.6953"/><polygon fill="#225C4D" points="216,151.6953,226,155.6953,216,159.6953,220,155.6953" style="stroke: #225C4D; stroke-width: 1.0;"/><line style="stroke: #225C4D; stroke-width: 1.0; stroke-dasharray: 2.0,2.0;" x1="53" x2="222" y1="155.6953" y2="155.6953"/><polygon fill="#225C4D" points="64,165.6953,54,169.6953,64,173.6953,60,169.6953" style="stroke: #225C4D; stroke-width: 1.0;"/><line style="stroke: #225C4D; stroke-width: 1.0; stroke-dasharray: 2.0,2.0;" x1="58" x2="232" y1="169.6953" y2="169.6953"/><!--MD5=[c07c6d5495d4882131aa97adb3991717]
@startuml
skinparam class {
 BackgroundColor #DDEEE8
 BorderColor #225C4D
 ArrowColor #225C4D
 }
FilterChain -> Filter1 : doFilter(req, resp, chain)
activate Filter1
Filter1 -> FilterChain : doFilter(req, resp)
activate FilterChain
FilterChain -> Filter2 : doFilter(req, resp, chain)
activate Filter2
Filter2 - -> FilterChain
destroy Filter2
deactivate Filter2
FilterChain - -> Filter1
deactivate FilterChain
Filter1 - -> FilterChain
deactivate Filter1
@enduml

PlantUML version 1.2019.12(Sun Nov 03 11:24:54 CET 2019)
(APACHE source distribution)
Java Runtime: OpenJDK Runtime Environment
JVM: OpenJDK 64-Bit Server VM
Java Version: 11.0.16+8-post-Ubuntu-0ubuntu122.04
Operating System: Linux
Default Encoding: UTF-8
Language: de
Country: DE
--></g></svg>