<?xml version="1.0" encoding="UTF-8" standalone="no"?><svg xmlns="http://www.w3.org/2000/svg" xmlns:xlink="http://www.w3.org/1999/xlink" contentScriptType="application/ecmascript" contentStyleType="text/css" height="276px" preserveAspectRatio="none" style="width:433px;height:276px;" version="1.1" viewBox="0 0 433 276" width="433px" zoomAndPan="magnify"><defs><filter height="300%" id="f1vixtyupc05u" width="300%" x="-1" y="-1"><feGaussianBlur result="blurOut" stdDeviation="2.0"/><feColorMatrix in="blurOut" result="blurOut2" type="matrix" values="0 0 0 0 0 0 0 0 0 0 0 0 0 0 0 0 0 0 .4 0"/><feOffset dx="4.0" dy="4.0" in="blurOut2" result="blurOut3"/><feBlend in="SourceGraphic" in2="blurOut3" mode="normal"/></filter></defs><g><!--MD5=[d0da0a299942266ebd64acf2b2e95fa4]
class Subject--><rect fill="#DDEEE8" filter="url(#f1vixtyupc05u)" height="48" id="Subject" style="stroke: #225C4D; stroke-width: 1.5;" width="79" x="190" y="8"/><ellipse cx="205" cy="24" fill="#ADD1B2" rx="11" ry="11" style="stroke: #225C4D; stroke-width: 1.0;"/><path d="M207.9688,29.6406 Q207.3906,29.9375 206.75,30.0781 Q206.1094,30.2344 205.4063,30.2344 Q202.9063,30.2344 201.5781,28.5938 Q200.2656,26.9375 200.2656,23.8125 Q200.2656,20.6875 201.5781,19.0313 Q202.9063,17.375 205.4063,17.375 Q206.1094,17.375 206.75,17.5313 Q207.4063,17.6875 207.9688,17.9844 L207.9688,20.7031 Q207.3438,20.125 206.75,19.8594 Q206.1563,19.5781 205.5313,19.5781 Q204.1875,19.5781 203.5,20.6563 Q202.8125,21.7188 202.8125,23.8125 Q202.8125,25.9063 203.5,26.9844 Q204.1875,28.0469 205.5313,28.0469 Q206.1563,28.0469 206.75,27.7813 Q207.3438,27.5 207.9688,26.9219 L207.9688,29.6406 Z "/><text fill="#000000" font-family="sans-serif" font-size="12" lengthAdjust="spacingAndGlyphs" textLength="47" x="219" y="28.1543">Subject</text><line style="stroke: #225C4D; stroke-width: 1.5;" x1="191" x2="268" y1="40" y2="40"/><line style="stroke: #225C4D; stroke-width: 1.5;" x1="191" x2="268" y1="48" y2="48"/><path d="M6,19.5 L6,44.6328 A0,0 0 0 0 6,44.6328 L155,44.6328 A0,0 0 0 0 155,44.6328 L155,37.5 L189.92,32 L155,29.5 L155,29.5 L145,19.5 L6,19.5 A0,0 0 0 0 6,19.5 " fill="#FBFB77" filter="url(#f1vixtyupc05u)" style="stroke: #A80036; stroke-width: 1.0;"/><path d="M145,19.5 L145,29.5 L155,29.5 L145,19.5 " fill="#FBFB77" style="stroke: #A80036; stroke-width: 1.0;"/><text fill="#000000" font-family="sans-serif" font-size="13" lengthAdjust="spacingAndGlyphs" textLength="128" x="12" y="36.5669">Person oder Service</text><path d="M16.5,224 L16.5,264.2656 A0,0 0 0 0 16.5,264.2656 L198.5,264.2656 A0,0 0 0 0 198.5,264.2656 L198.5,234 L188.5,224 L120.39,224 L143.83,164.15 L112.39,224 L16.5,224 A0,0 0 0 0 16.5,224 " fill="#FBFB77" filter="url(#f1vixtyupc05u)" style="stroke: #A80036; stroke-width: 1.0;"/><path d="M188.5,224 L188.5,234 L198.5,234 L188.5,224 " fill="#FBFB77" style="stroke: #A80036; stroke-width: 1.0;"/><text fill="#000000" font-family="sans-serif" font-size="13" lengthAdjust="spacingAndGlyphs" textLength="145" x="22.5" y="241.0669">Name, E-Mail Adresse,</text><text fill="#000000" font-family="sans-serif" font-size="13" lengthAdjust="spacingAndGlyphs" textLength="161" x="22.5" y="256.1997">Kreditkartennummer etc.</text><path d="M234,224 L234,264.2656 A0,0 0 0 0 234,264.2656 L421,264.2656 A0,0 0 0 0 421,264.2656 L421,234 L411,224 L326.96,224 L308.95,164.15 L318.96,224 L234,224 A0,0 0 0 0 234,224 " fill="#FBFB77" filter="url(#f1vixtyupc05u)" style="stroke: #A80036; stroke-width: 1.0;"/><path d="M411,224 L411,234 L421,234 L411,224 " fill="#FBFB77" style="stroke: #A80036; stroke-width: 1.0;"/><text fill="#000000" font-family="sans-serif" font-size="13" lengthAdjust="spacingAndGlyphs" textLength="166" x="240" y="241.0669">Password, Kerberos Ticket</text><text fill="#000000" font-family="sans-serif" font-size="13" lengthAdjust="spacingAndGlyphs" textLength="154" x="240" y="256.1997">Public Key Zertifikat etc.</text><!--MD5=[bfe80886124190284096452d0cb4568d]
class Principal--><rect fill="#DDEEE8" filter="url(#f1vixtyupc05u)" height="48" id="Principal" style="stroke: #225C4D; stroke-width: 1.5;" width="85" x="112" y="116"/><ellipse cx="127" cy="132" fill="#ADD1B2" rx="11" ry="11" style="stroke: #225C4D; stroke-width: 1.0;"/><path d="M129.9688,137.6406 Q129.3906,137.9375 128.75,138.0781 Q128.1094,138.2344 127.4063,138.2344 Q124.9063,138.2344 123.5781,136.5938 Q122.2656,134.9375 122.2656,131.8125 Q122.2656,128.6875 123.5781,127.0313 Q124.9063,125.375 127.4063,125.375 Q128.1094,125.375 128.75,125.5313 Q129.4063,125.6875 129.9688,125.9844 L129.9688,128.7031 Q129.3438,128.125 128.75,127.8594 Q128.1563,127.5781 127.5313,127.5781 Q126.1875,127.5781 125.5,128.6563 Q124.8125,129.7188 124.8125,131.8125 Q124.8125,133.9063 125.5,134.9844 Q126.1875,136.0469 127.5313,136.0469 Q128.1563,136.0469 128.75,135.7813 Q129.3438,135.5 129.9688,134.9219 L129.9688,137.6406 Z "/><text fill="#000000" font-family="sans-serif" font-size="12" lengthAdjust="spacingAndGlyphs" textLength="53" x="141" y="136.1543">Principal</text><line style="stroke: #225C4D; stroke-width: 1.5;" x1="113" x2="196" y1="148" y2="148"/><line style="stroke: #225C4D; stroke-width: 1.5;" x1="113" x2="196" y1="156" y2="156"/><!--MD5=[270a02414e6f22a29d048d08eafde2d4]
class Credential--><rect fill="#DDEEE8" filter="url(#f1vixtyupc05u)" height="48" id="Credential" style="stroke: #225C4D; stroke-width: 1.5;" width="96" x="255.5" y="116"/><ellipse cx="270.5" cy="132" fill="#ADD1B2" rx="11" ry="11" style="stroke: #225C4D; stroke-width: 1.0;"/><path d="M273.4688,137.6406 Q272.8906,137.9375 272.25,138.0781 Q271.6094,138.2344 270.9063,138.2344 Q268.4063,138.2344 267.0781,136.5938 Q265.7656,134.9375 265.7656,131.8125 Q265.7656,128.6875 267.0781,127.0313 Q268.4063,125.375 270.9063,125.375 Q271.6094,125.375 272.25,125.5313 Q272.9063,125.6875 273.4688,125.9844 L273.4688,128.7031 Q272.8438,128.125 272.25,127.8594 Q271.6563,127.5781 271.0313,127.5781 Q269.6875,127.5781 269,128.6563 Q268.3125,129.7188 268.3125,131.8125 Q268.3125,133.9063 269,134.9844 Q269.6875,136.0469 271.0313,136.0469 Q271.6563,136.0469 272.25,135.7813 Q272.8438,135.5 273.4688,134.9219 L273.4688,137.6406 Z "/><text fill="#000000" font-family="sans-serif" font-size="12" lengthAdjust="spacingAndGlyphs" textLength="64" x="284.5" y="136.1543">Credential</text><line style="stroke: #225C4D; stroke-width: 1.5;" x1="256.5" x2="350.5" y1="148" y2="148"/><line style="stroke: #225C4D; stroke-width: 1.5;" x1="256.5" x2="350.5" y1="156" y2="156"/><!--MD5=[d9815d498c1495e82158eb4ab3471750]
link Subject to Principal--><path d="M213.23,56 C201.71,72.28 186.21,94.19 174.02,111.41 " fill="none" id="Subject-&gt;Principal" style="stroke: #225C4D; stroke-width: 1.0;"/><polygon fill="#225C4D" points="171,115.68,179.4594,110.6363,173.8845,111.596,172.9249,106.0211,171,115.68" style="stroke: #225C4D; stroke-width: 1.0;"/><text fill="#000000" font-family="sans-serif" font-size="13" lengthAdjust="spacingAndGlyphs" textLength="7" x="167.1688" y="105.007">*</text><!--MD5=[f1bff674d903b67c6000f6d1c6b7f299]
link Subject to Credential--><path d="M245.56,56 C256.92,72.28 272.22,94.19 284.24,111.41 " fill="none" id="Subject-&gt;Credential" style="stroke: #225C4D; stroke-width: 1.0;"/><polygon fill="#225C4D" points="287.22,115.68,285.3561,106.0091,284.3613,111.5778,278.7926,110.583,287.22,115.68" style="stroke: #225C4D; stroke-width: 1.0;"/><text fill="#000000" font-family="sans-serif" font-size="13" lengthAdjust="spacingAndGlyphs" textLength="7" x="275.3986" y="105.007">*</text><!--MD5=[d50e3e445690b4ed77e1e3e868b7dfb3]
@startuml
skinparam class {
 BackgroundColor #DDEEE8
 BorderColor #225C4D
 ArrowColor #225C4D
 }
class Subject
note left: Person oder Service
note "Name, E-Mail Adresse,\nKreditkartennummer etc." as P
note "Password, Kerberos Ticket\nPublic Key Zertifikat etc." as C

Subject - -> "*" Principal
Subject - -> "*" Credential

Principal .. P
Credential .. C
@enduml

PlantUML version 1.2019.12(Sun Nov 03 11:24:54 CET 2019)
(APACHE source distribution)
Java Runtime: OpenJDK Runtime Environment
JVM: OpenJDK 64-Bit Server VM
Java Version: 11.0.16+8-post-Ubuntu-0ubuntu122.04
Operating System: Linux
Default Encoding: UTF-8
Language: de
Country: DE
--></g></svg>