<?xml version="1.0" encoding="UTF-8" standalone="no"?><svg xmlns="http://www.w3.org/2000/svg" xmlns:xlink="http://www.w3.org/1999/xlink" contentScriptType="application/ecmascript" contentStyleType="text/css" height="200px" preserveAspectRatio="none" style="width:229px;height:200px;" version="1.1" viewBox="0 0 229 200" width="229px" zoomAndPan="magnify"><defs><filter height="300%" id="f1str87ma9k83l" width="300%" x="-1" y="-1"><feGaussianBlur result="blurOut" stdDeviation="2.0"/><feColorMatrix in="blurOut" result="blurOut2" type="matrix" values="0 0 0 0 0 0 0 0 0 0 0 0 0 0 0 0 0 0 .4 0"/><feOffset dx="4.0" dy="4.0" in="blurOut2" result="blurOut3"/><feBlend in="SourceGraphic" in2="blurOut3" mode="normal"/></filter></defs><g><!--MD5=[bd5220611d0c28d928ccc89c278a01cf]
class ApplicationContext--><rect fill="#DDEEE8" filter="url(#f1str87ma9k83l)" height="60.8047" id="ApplicationContext" style="stroke: #225C4D; stroke-width: 1.5;" width="187" x="18.5" y="8"/><ellipse cx="50.15" cy="24" fill="#B4A7E5" rx="11" ry="11" style="stroke: #225C4D; stroke-width: 1.0;"/><path d="M46.0719,19.7656 L46.0719,17.6094 L53.4625,17.6094 L53.4625,19.7656 L50.9938,19.7656 L50.9938,27.8438 L53.4625,27.8438 L53.4625,30 L46.0719,30 L46.0719,27.8438 L48.5406,27.8438 L48.5406,19.7656 L46.0719,19.7656 Z "/><text fill="#000000" font-family="sans-serif" font-size="12" font-style="italic" lengthAdjust="spacingAndGlyphs" textLength="118" x="67.85" y="28.1543">ApplicationContext</text><line style="stroke: #225C4D; stroke-width: 1.5;" x1="19.5" x2="204.5" y1="40" y2="40"/><line style="stroke: #225C4D; stroke-width: 1.5;" x1="19.5" x2="204.5" y1="48" y2="48"/><text fill="#000000" font-family="sans-serif" font-size="11" lengthAdjust="spacingAndGlyphs" textLength="175" x="24.5" y="62.2104">getParent(): ApplicationContext</text><!--MD5=[25babdaaa420b6624a10302656c23378]
class WebApplicationContext--><rect fill="#DDEEE8" filter="url(#f1str87ma9k83l)" height="60.8047" id="WebApplicationContext" style="stroke: #225C4D; stroke-width: 1.5;" width="212" x="6" y="129"/><ellipse cx="36.3" cy="145" fill="#B4A7E5" rx="11" ry="11" style="stroke: #225C4D; stroke-width: 1.0;"/><path d="M32.2219,140.7656 L32.2219,138.6094 L39.6125,138.6094 L39.6125,140.7656 L37.1438,140.7656 L37.1438,148.8438 L39.6125,148.8438 L39.6125,151 L32.2219,151 L32.2219,148.8438 L34.6906,148.8438 L34.6906,140.7656 L32.2219,140.7656 Z "/><text fill="#000000" font-family="sans-serif" font-size="12" font-style="italic" lengthAdjust="spacingAndGlyphs" textLength="146" x="53.7" y="149.1543">WebApplicationContext</text><line style="stroke: #225C4D; stroke-width: 1.5;" x1="7" x2="217" y1="161" y2="161"/><line style="stroke: #225C4D; stroke-width: 1.5;" x1="7" x2="217" y1="169" y2="169"/><text fill="#000000" font-family="sans-serif" font-size="11" lengthAdjust="spacingAndGlyphs" textLength="200" x="12" y="183.2104">getServletContext(): ServletContext</text><!--MD5=[18817da13b5077a129740727b00cf8e2]
reverse link ApplicationContext to WebApplicationContext--><path d="M112,89.33 C112,102.73 112,116.81 112,128.74 " fill="none" id="ApplicationContext&lt;-WebApplicationContext" style="stroke: #225C4D; stroke-width: 1.0; stroke-dasharray: 7.0,7.0;"/><polygon fill="none" points="105,89.22,112,69.22,119,89.22,105,89.22" style="stroke: #225C4D; stroke-width: 1.0;"/><!--MD5=[c12935a6b0adefbe07d75c53d29c75c8]
@startuml
skinparam class {
 BackgroundColor #DDEEE8
 BorderColor #225C4D
 ArrowColor #225C4D
 }
interface ApplicationContext {
    getParent(): ApplicationContext
}

interface WebApplicationContext {
    getServletContext(): ServletContext
}

ApplicationContext <|.. WebApplicationContext
@enduml

PlantUML version 1.2019.12(Sun Nov 03 11:24:54 CET 2019)
(APACHE source distribution)
Java Runtime: OpenJDK Runtime Environment
JVM: OpenJDK 64-Bit Server VM
Java Version: 11.0.16+8-post-Ubuntu-0ubuntu122.04
Operating System: Linux
Default Encoding: UTF-8
Language: de
Country: DE
--></g></svg>