<?xml version="1.0" encoding="UTF-8" standalone="no"?><svg xmlns="http://www.w3.org/2000/svg" xmlns:xlink="http://www.w3.org/1999/xlink" contentScriptType="application/ecmascript" contentStyleType="text/css" height="391px" preserveAspectRatio="none" style="width:1270px;height:391px;" version="1.1" viewBox="0 0 1270 391" width="1270px" zoomAndPan="magnify"><defs><filter height="300%" id="ftzlipgxvsbwp" width="300%" x="-1" y="-1"><feGaussianBlur result="blurOut" stdDeviation="2.0"/><feColorMatrix in="blurOut" result="blurOut2" type="matrix" values="0 0 0 0 0 0 0 0 0 0 0 0 0 0 0 0 0 0 .4 0"/><feOffset dx="4.0" dy="4.0" in="blurOut2" result="blurOut3"/><feBlend in="SourceGraphic" in2="blurOut3" mode="normal"/></filter></defs><g><!--MD5=[bd5220611d0c28d928ccc89c278a01cf]
class ApplicationContext--><rect fill="#DDEEE8" filter="url(#ftzlipgxvsbwp)" height="48" id="ApplicationContext" style="stroke: #225C4D; stroke-width: 1.5;" width="150" x="361" y="8"/><ellipse cx="376" cy="24" fill="#B4A7E5" rx="11" ry="11" style="stroke: #225C4D; stroke-width: 1.0;"/><path d="M371.9219,19.7656 L371.9219,17.6094 L379.3125,17.6094 L379.3125,19.7656 L376.8438,19.7656 L376.8438,27.8438 L379.3125,27.8438 L379.3125,30 L371.9219,30 L371.9219,27.8438 L374.3906,27.8438 L374.3906,19.7656 L371.9219,19.7656 Z "/><text fill="#000000" font-family="sans-serif" font-size="12" font-style="italic" lengthAdjust="spacingAndGlyphs" textLength="118" x="390" y="28.1543">ApplicationContext</text><line style="stroke: #225C4D; stroke-width: 1.5;" x1="362" x2="510" y1="40" y2="40"/><line style="stroke: #225C4D; stroke-width: 1.5;" x1="362" x2="510" y1="48" y2="48"/><!--MD5=[25babdaaa420b6624a10302656c23378]
class WebApplicationContext--><rect fill="#DDEEE8" filter="url(#ftzlipgxvsbwp)" height="48" id="WebApplicationContext" style="stroke: #225C4D; stroke-width: 1.5;" width="178" x="546" y="8"/><ellipse cx="561" cy="24" fill="#B4A7E5" rx="11" ry="11" style="stroke: #225C4D; stroke-width: 1.0;"/><path d="M556.9219,19.7656 L556.9219,17.6094 L564.3125,17.6094 L564.3125,19.7656 L561.8438,19.7656 L561.8438,27.8438 L564.3125,27.8438 L564.3125,30 L556.9219,30 L556.9219,27.8438 L559.3906,27.8438 L559.3906,19.7656 L556.9219,19.7656 Z "/><text fill="#000000" font-family="sans-serif" font-size="12" font-style="italic" lengthAdjust="spacingAndGlyphs" textLength="146" x="575" y="28.1543">WebApplicationContext</text><line style="stroke: #225C4D; stroke-width: 1.5;" x1="547" x2="723" y1="40" y2="40"/><line style="stroke: #225C4D; stroke-width: 1.5;" x1="547" x2="723" y1="48" y2="48"/><!--MD5=[bc42f8007547cbb7408e9d726a1110ed]
class ConfigurableWebApplicationContext--><rect fill="#DDEEE8" filter="url(#ftzlipgxvsbwp)" height="48" id="ConfigurableWebApplicationContext" style="stroke: #225C4D; stroke-width: 1.5;" width="257" x="759.5" y="8"/><ellipse cx="774.5" cy="24" fill="#B4A7E5" rx="11" ry="11" style="stroke: #225C4D; stroke-width: 1.0;"/><path d="M770.4219,19.7656 L770.4219,17.6094 L777.8125,17.6094 L777.8125,19.7656 L775.3438,19.7656 L775.3438,27.8438 L777.8125,27.8438 L777.8125,30 L770.4219,30 L770.4219,27.8438 L772.8906,27.8438 L772.8906,19.7656 L770.4219,19.7656 Z "/><text fill="#000000" font-family="sans-serif" font-size="12" font-style="italic" lengthAdjust="spacingAndGlyphs" textLength="225" x="788.5" y="28.1543">ConfigurableWebApplicationContext</text><line style="stroke: #225C4D; stroke-width: 1.5;" x1="760.5" x2="1015.5" y1="40" y2="40"/><line style="stroke: #225C4D; stroke-width: 1.5;" x1="760.5" x2="1015.5" y1="48" y2="48"/><!--MD5=[04685d28980d4b25c14a8a8744ca97b7]
class AbstractRefreshableWebApplicationContext--><rect fill="#DDEEE8" filter="url(#ftzlipgxvsbwp)" height="48" id="AbstractRefreshableWebApplicationContext" style="stroke: #225C4D; stroke-width: 1.5;" width="304" x="385" y="116"/><ellipse cx="400" cy="132" fill="#ADD1B2" rx="11" ry="11" style="stroke: #225C4D; stroke-width: 1.0;"/><path d="M402.9688,137.6406 Q402.3906,137.9375 401.75,138.0781 Q401.1094,138.2344 400.4063,138.2344 Q397.9063,138.2344 396.5781,136.5938 Q395.2656,134.9375 395.2656,131.8125 Q395.2656,128.6875 396.5781,127.0313 Q397.9063,125.375 400.4063,125.375 Q401.1094,125.375 401.75,125.5313 Q402.4063,125.6875 402.9688,125.9844 L402.9688,128.7031 Q402.3438,128.125 401.75,127.8594 Q401.1563,127.5781 400.5313,127.5781 Q399.1875,127.5781 398.5,128.6563 Q397.8125,129.7188 397.8125,131.8125 Q397.8125,133.9063 398.5,134.9844 Q399.1875,136.0469 400.5313,136.0469 Q401.1563,136.0469 401.75,135.7813 Q402.3438,135.5 402.9688,134.9219 L402.9688,137.6406 Z "/><text fill="#000000" font-family="sans-serif" font-size="12" lengthAdjust="spacingAndGlyphs" textLength="272" x="414" y="136.1543">AbstractRefreshableWebApplicationContext</text><line style="stroke: #225C4D; stroke-width: 1.5;" x1="386" x2="688" y1="148" y2="148"/><line style="stroke: #225C4D; stroke-width: 1.5;" x1="386" x2="688" y1="156" y2="156"/><!--MD5=[4fb55b0a72f63582ec2f5f9c02ba17ba]
class AnnotationConfigWebApplicationContext--><rect fill="#DDEEE8" filter="url(#ftzlipgxvsbwp)" height="48" id="AnnotationConfigWebApplicationContext" style="stroke: #225C4D; stroke-width: 1.5;" width="284" x="6" y="224"/><ellipse cx="21" cy="240" fill="#ADD1B2" rx="11" ry="11" style="stroke: #225C4D; stroke-width: 1.0;"/><path d="M23.9688,245.6406 Q23.3906,245.9375 22.75,246.0781 Q22.1094,246.2344 21.4063,246.2344 Q18.9063,246.2344 17.5781,244.5938 Q16.2656,242.9375 16.2656,239.8125 Q16.2656,236.6875 17.5781,235.0313 Q18.9063,233.375 21.4063,233.375 Q22.1094,233.375 22.75,233.5313 Q23.4063,233.6875 23.9688,233.9844 L23.9688,236.7031 Q23.3438,236.125 22.75,235.8594 Q22.1563,235.5781 21.5313,235.5781 Q20.1875,235.5781 19.5,236.6563 Q18.8125,237.7188 18.8125,239.8125 Q18.8125,241.9063 19.5,242.9844 Q20.1875,244.0469 21.5313,244.0469 Q22.1563,244.0469 22.75,243.7813 Q23.3438,243.5 23.9688,242.9219 L23.9688,245.6406 Z "/><text fill="#000000" font-family="sans-serif" font-size="12" lengthAdjust="spacingAndGlyphs" textLength="252" x="35" y="244.1543">AnnotationConfigWebApplicationContext</text><line style="stroke: #225C4D; stroke-width: 1.5;" x1="7" x2="289" y1="256" y2="256"/><line style="stroke: #225C4D; stroke-width: 1.5;" x1="7" x2="289" y1="264" y2="264"/><!--MD5=[aee1d6c27bd0a76e4ca4f4ae5a18548c]
class GroovyWebApplicationContext--><rect fill="#DDEEE8" filter="url(#ftzlipgxvsbwp)" height="48" id="GroovyWebApplicationContext" style="stroke: #225C4D; stroke-width: 1.5;" width="218" x="325" y="224"/><ellipse cx="340" cy="240" fill="#ADD1B2" rx="11" ry="11" style="stroke: #225C4D; stroke-width: 1.0;"/><path d="M342.9688,245.6406 Q342.3906,245.9375 341.75,246.0781 Q341.1094,246.2344 340.4063,246.2344 Q337.9063,246.2344 336.5781,244.5938 Q335.2656,242.9375 335.2656,239.8125 Q335.2656,236.6875 336.5781,235.0313 Q337.9063,233.375 340.4063,233.375 Q341.1094,233.375 341.75,233.5313 Q342.4063,233.6875 342.9688,233.9844 L342.9688,236.7031 Q342.3438,236.125 341.75,235.8594 Q341.1563,235.5781 340.5313,235.5781 Q339.1875,235.5781 338.5,236.6563 Q337.8125,237.7188 337.8125,239.8125 Q337.8125,241.9063 338.5,242.9844 Q339.1875,244.0469 340.5313,244.0469 Q341.1563,244.0469 341.75,243.7813 Q342.3438,243.5 342.9688,242.9219 L342.9688,245.6406 Z "/><text fill="#000000" font-family="sans-serif" font-size="12" lengthAdjust="spacingAndGlyphs" textLength="186" x="354" y="244.1543">GroovyWebApplicationContext</text><line style="stroke: #225C4D; stroke-width: 1.5;" x1="326" x2="542" y1="256" y2="256"/><line style="stroke: #225C4D; stroke-width: 1.5;" x1="326" x2="542" y1="264" y2="264"/><!--MD5=[6da6fa950c2a0921d926be55a4d06b12]
class XmlWebApplicationContext--><rect fill="#DDEEE8" filter="url(#ftzlipgxvsbwp)" height="48" id="XmlWebApplicationContext" style="stroke: #225C4D; stroke-width: 1.5;" width="197" x="578.5" y="224"/><ellipse cx="593.5" cy="240" fill="#ADD1B2" rx="11" ry="11" style="stroke: #225C4D; stroke-width: 1.0;"/><path d="M596.4688,245.6406 Q595.8906,245.9375 595.25,246.0781 Q594.6094,246.2344 593.9063,246.2344 Q591.4063,246.2344 590.0781,244.5938 Q588.7656,242.9375 588.7656,239.8125 Q588.7656,236.6875 590.0781,235.0313 Q591.4063,233.375 593.9063,233.375 Q594.6094,233.375 595.25,233.5313 Q595.9063,233.6875 596.4688,233.9844 L596.4688,236.7031 Q595.8438,236.125 595.25,235.8594 Q594.6563,235.5781 594.0313,235.5781 Q592.6875,235.5781 592,236.6563 Q591.3125,237.7188 591.3125,239.8125 Q591.3125,241.9063 592,242.9844 Q592.6875,244.0469 594.0313,244.0469 Q594.6563,244.0469 595.25,243.7813 Q595.8438,243.5 596.4688,242.9219 L596.4688,245.6406 Z "/><text fill="#000000" font-family="sans-serif" font-size="12" lengthAdjust="spacingAndGlyphs" textLength="165" x="607.5" y="244.1543">XmlWebApplicationContext</text><line style="stroke: #225C4D; stroke-width: 1.5;" x1="579.5" x2="774.5" y1="256" y2="256"/><line style="stroke: #225C4D; stroke-width: 1.5;" x1="579.5" x2="774.5" y1="264" y2="264"/><!--MD5=[03b475f2db410d86c89ea5c92a71caa3]
class GenericWebApplicationContext--><rect fill="#DDEEE8" filter="url(#ftzlipgxvsbwp)" height="48" id="GenericWebApplicationContext" style="stroke: #225C4D; stroke-width: 1.5;" width="224" x="776" y="116"/><ellipse cx="791" cy="132" fill="#ADD1B2" rx="11" ry="11" style="stroke: #225C4D; stroke-width: 1.0;"/><path d="M793.9688,137.6406 Q793.3906,137.9375 792.75,138.0781 Q792.1094,138.2344 791.4063,138.2344 Q788.9063,138.2344 787.5781,136.5938 Q786.2656,134.9375 786.2656,131.8125 Q786.2656,128.6875 787.5781,127.0313 Q788.9063,125.375 791.4063,125.375 Q792.1094,125.375 792.75,125.5313 Q793.4063,125.6875 793.9688,125.9844 L793.9688,128.7031 Q793.3438,128.125 792.75,127.8594 Q792.1563,127.5781 791.5313,127.5781 Q790.1875,127.5781 789.5,128.6563 Q788.8125,129.7188 788.8125,131.8125 Q788.8125,133.9063 789.5,134.9844 Q790.1875,136.0469 791.5313,136.0469 Q792.1563,136.0469 792.75,135.7813 Q793.3438,135.5 793.9688,134.9219 L793.9688,137.6406 Z "/><text fill="#000000" font-family="sans-serif" font-size="12" lengthAdjust="spacingAndGlyphs" textLength="192" x="805" y="136.1543">GenericWebApplicationContext</text><line style="stroke: #225C4D; stroke-width: 1.5;" x1="777" x2="999" y1="148" y2="148"/><line style="stroke: #225C4D; stroke-width: 1.5;" x1="777" x2="999" y1="156" y2="156"/><!--MD5=[8e07e5361c05f00ffd64f46ceefa7ceb]
class ServletWebServerApplicationContext--><rect fill="#DDEEE8" filter="url(#ftzlipgxvsbwp)" height="48" id="ServletWebServerApplicationContext" style="stroke: #225C4D; stroke-width: 1.5;" width="259" x="810.5" y="224"/><ellipse cx="825.5" cy="240" fill="#ADD1B2" rx="11" ry="11" style="stroke: #225C4D; stroke-width: 1.0;"/><path d="M828.4688,245.6406 Q827.8906,245.9375 827.25,246.0781 Q826.6094,246.2344 825.9063,246.2344 Q823.4063,246.2344 822.0781,244.5938 Q820.7656,242.9375 820.7656,239.8125 Q820.7656,236.6875 822.0781,235.0313 Q823.4063,233.375 825.9063,233.375 Q826.6094,233.375 827.25,233.5313 Q827.9063,233.6875 828.4688,233.9844 L828.4688,236.7031 Q827.8438,236.125 827.25,235.8594 Q826.6563,235.5781 826.0313,235.5781 Q824.6875,235.5781 824,236.6563 Q823.3125,237.7188 823.3125,239.8125 Q823.3125,241.9063 824,242.9844 Q824.6875,244.0469 826.0313,244.0469 Q826.6563,244.0469 827.25,243.7813 Q827.8438,243.5 828.4688,242.9219 L828.4688,245.6406 Z "/><text fill="#000000" font-family="sans-serif" font-size="12" lengthAdjust="spacingAndGlyphs" textLength="227" x="839.5" y="244.1543">ServletWebServerApplicationContext</text><line style="stroke: #225C4D; stroke-width: 1.5;" x1="811.5" x2="1068.5" y1="256" y2="256"/><line style="stroke: #225C4D; stroke-width: 1.5;" x1="811.5" x2="1068.5" y1="264" y2="264"/><!--MD5=[afc8ed9fe81e4ff4415db93def74a3e7]
class AnnotationConfigServletWebServerApplicationContext--><rect fill="#DDEEE8" filter="url(#ftzlipgxvsbwp)" height="48" id="AnnotationConfigServletWebServerApplicationContext" style="stroke: #225C4D; stroke-width: 1.5;" width="367" x="576.5" y="332"/><ellipse cx="591.5" cy="348" fill="#ADD1B2" rx="11" ry="11" style="stroke: #225C4D; stroke-width: 1.0;"/><path d="M594.4688,353.6406 Q593.8906,353.9375 593.25,354.0781 Q592.6094,354.2344 591.9063,354.2344 Q589.4063,354.2344 588.0781,352.5938 Q586.7656,350.9375 586.7656,347.8125 Q586.7656,344.6875 588.0781,343.0313 Q589.4063,341.375 591.9063,341.375 Q592.6094,341.375 593.25,341.5313 Q593.9063,341.6875 594.4688,341.9844 L594.4688,344.7031 Q593.8438,344.125 593.25,343.8594 Q592.6563,343.5781 592.0313,343.5781 Q590.6875,343.5781 590,344.6563 Q589.3125,345.7188 589.3125,347.8125 Q589.3125,349.9063 590,350.9844 Q590.6875,352.0469 592.0313,352.0469 Q592.6563,352.0469 593.25,351.7813 Q593.8438,351.5 594.4688,350.9219 L594.4688,353.6406 Z "/><text fill="#000000" font-family="sans-serif" font-size="12" lengthAdjust="spacingAndGlyphs" textLength="335" x="605.5" y="352.1543">AnnotationConfigServletWebServerApplicationContext</text><line style="stroke: #225C4D; stroke-width: 1.5;" x1="577.5" x2="942.5" y1="364" y2="364"/><line style="stroke: #225C4D; stroke-width: 1.5;" x1="577.5" x2="942.5" y1="372" y2="372"/><!--MD5=[634c87d564a011f2bf5dfe1c00656f69]
class XmlServletWebServerApplicationContext--><rect fill="#DDEEE8" filter="url(#ftzlipgxvsbwp)" height="48" id="XmlServletWebServerApplicationContext" style="stroke: #225C4D; stroke-width: 1.5;" width="280" x="979" y="332"/><ellipse cx="994" cy="348" fill="#ADD1B2" rx="11" ry="11" style="stroke: #225C4D; stroke-width: 1.0;"/><path d="M996.9688,353.6406 Q996.3906,353.9375 995.75,354.0781 Q995.1094,354.2344 994.4063,354.2344 Q991.9063,354.2344 990.5781,352.5938 Q989.2656,350.9375 989.2656,347.8125 Q989.2656,344.6875 990.5781,343.0313 Q991.9063,341.375 994.4063,341.375 Q995.1094,341.375 995.75,341.5313 Q996.4063,341.6875 996.9688,341.9844 L996.9688,344.7031 Q996.3438,344.125 995.75,343.8594 Q995.1563,343.5781 994.5313,343.5781 Q993.1875,343.5781 992.5,344.6563 Q991.8125,345.7188 991.8125,347.8125 Q991.8125,349.9063 992.5,350.9844 Q993.1875,352.0469 994.5313,352.0469 Q995.1563,352.0469 995.75,351.7813 Q996.3438,351.5 996.9688,350.9219 L996.9688,353.6406 Z "/><text fill="#000000" font-family="sans-serif" font-size="12" lengthAdjust="spacingAndGlyphs" textLength="248" x="1008" y="352.1543">XmlServletWebServerApplicationContext</text><line style="stroke: #225C4D; stroke-width: 1.5;" x1="980" x2="1258" y1="364" y2="364"/><line style="stroke: #225C4D; stroke-width: 1.5;" x1="980" x2="1258" y1="372" y2="372"/><!--MD5=[6fb12de3a987450ffd7ab455fc624577]
class StaticWebApplicationContext--><rect fill="#DDEEE8" filter="url(#ftzlipgxvsbwp)" height="48" id="StaticWebApplicationContext" style="stroke: #225C4D; stroke-width: 1.5;" width="212" x="1035" y="116"/><ellipse cx="1050" cy="132" fill="#ADD1B2" rx="11" ry="11" style="stroke: #225C4D; stroke-width: 1.0;"/><path d="M1052.9688,137.6406 Q1052.3906,137.9375 1051.75,138.0781 Q1051.1094,138.2344 1050.4063,138.2344 Q1047.9063,138.2344 1046.5781,136.5938 Q1045.2656,134.9375 1045.2656,131.8125 Q1045.2656,128.6875 1046.5781,127.0313 Q1047.9063,125.375 1050.4063,125.375 Q1051.1094,125.375 1051.75,125.5313 Q1052.4063,125.6875 1052.9688,125.9844 L1052.9688,128.7031 Q1052.3438,128.125 1051.75,127.8594 Q1051.1563,127.5781 1050.5313,127.5781 Q1049.1875,127.5781 1048.5,128.6563 Q1047.8125,129.7188 1047.8125,131.8125 Q1047.8125,133.9063 1048.5,134.9844 Q1049.1875,136.0469 1050.5313,136.0469 Q1051.1563,136.0469 1051.75,135.7813 Q1052.3438,135.5 1052.9688,134.9219 L1052.9688,137.6406 Z "/><text fill="#000000" font-family="sans-serif" font-size="12" lengthAdjust="spacingAndGlyphs" textLength="180" x="1064" y="136.1543">StaticWebApplicationContext</text><line style="stroke: #225C4D; stroke-width: 1.5;" x1="1036" x2="1246" y1="148" y2="148"/><line style="stroke: #225C4D; stroke-width: 1.5;" x1="1036" x2="1246" y1="156" y2="156"/><!--MD5=[18817da13b5077a129740727b00cf8e2]
reverse link ApplicationContext to WebApplicationContext--><path d="M531.17,32 C536.08,32 540.98,32 545.88,32 " fill="none" id="ApplicationContext&lt;-WebApplicationContext" style="stroke: #225C4D; stroke-width: 1.0; stroke-dasharray: 7.0,7.0;"/><polygon fill="none" points="531.01,39,511.01,32,531.01,25,531.01,39" style="stroke: #225C4D; stroke-width: 1.0;"/><!--MD5=[8bda4f8c7848f93c6570054d6a6f26f9]
reverse link WebApplicationContext to ConfigurableWebApplicationContext--><path d="M744.57,32 C749.47,32 754.36,32 759.26,32 " fill="none" id="WebApplicationContext&lt;-ConfigurableWebApplicationContext" style="stroke: #225C4D; stroke-width: 1.0; stroke-dasharray: 7.0,7.0;"/><polygon fill="none" points="744.44,39,724.44,32,744.44,25,744.44,39" style="stroke: #225C4D; stroke-width: 1.0;"/><!--MD5=[005978582973c957011976d6815b2f4f]
reverse link ConfigurableWebApplicationContext to AbstractRefreshableWebApplicationContext--><path d="M792.55,61.82 C736.24,78.83 665.92,100.07 613.32,115.95 " fill="none" id="ConfigurableWebApplicationContext&lt;-AbstractRefreshableWebApplicationContext" style="stroke: #225C4D; stroke-width: 1.0; stroke-dasharray: 7.0,7.0;"/><polygon fill="none" points="790.67,55.08,811.84,56,794.72,68.48,790.67,55.08" style="stroke: #225C4D; stroke-width: 1.0;"/><!--MD5=[cd289f80267a6717baa335fddde84b49]
reverse link AbstractRefreshableWebApplicationContext to AnnotationConfigWebApplicationContext--><path d="M433.26,169.27 C370.51,186.37 291.52,207.89 232.58,223.95 " fill="none" id="AbstractRefreshableWebApplicationContext&lt;-AnnotationConfigWebApplicationContext" style="stroke: #225C4D; stroke-width: 1.0;"/><polygon fill="none" points="431.46,162.5,452.59,164,435.14,176.01,431.46,162.5" style="stroke: #225C4D; stroke-width: 1.0;"/><!--MD5=[262bcab9f5141f8c131bfbdf634edd68]
reverse link AbstractRefreshableWebApplicationContext to GroovyWebApplicationContext--><path d="M500.32,178.75 C485.75,193.74 469.45,210.51 456.66,223.68 " fill="none" id="AbstractRefreshableWebApplicationContext&lt;-GroovyWebApplicationContext" style="stroke: #225C4D; stroke-width: 1.0;"/><polygon fill="none" points="495.69,173.47,514.65,164,505.73,183.22,495.69,173.47" style="stroke: #225C4D; stroke-width: 1.0;"/><!--MD5=[71e6d52dc988aa15ab1465f198337783]
reverse link AbstractRefreshableWebApplicationContext to XmlWebApplicationContext--><path d="M583.45,176.17 C604.08,191.79 627.8,209.75 646.2,223.68 " fill="none" id="AbstractRefreshableWebApplicationContext&lt;-XmlWebApplicationContext" style="stroke: #225C4D; stroke-width: 1.0;"/><polygon fill="none" points="579.1,181.65,567.38,164,587.55,170.49,579.1,181.65" style="stroke: #225C4D; stroke-width: 1.0;"/><!--MD5=[a5554dc665f80976cc82b04d7a3fe27b]
reverse link ConfigurableWebApplicationContext to GenericWebApplicationContext--><path d="M888,76.02 C888,89.58 888,104.04 888,115.68 " fill="none" id="ConfigurableWebApplicationContext&lt;-GenericWebApplicationContext" style="stroke: #225C4D; stroke-width: 1.0; stroke-dasharray: 7.0,7.0;"/><polygon fill="none" points="881,76,888,56,895,76,881,76" style="stroke: #225C4D; stroke-width: 1.0;"/><!--MD5=[097fb82502b5e73f87c6269ee1642302]
reverse link GenericWebApplicationContext to ServletWebServerApplicationContext--><path d="M908.16,182.09 C915.08,196.2 922.58,211.48 928.56,223.68 " fill="none" id="GenericWebApplicationContext&lt;-ServletWebServerApplicationContext" style="stroke: #225C4D; stroke-width: 1.0;"/><polygon fill="none" points="901.81,185.04,899.28,164,914.38,178.87,901.81,185.04" style="stroke: #225C4D; stroke-width: 1.0;"/><!--MD5=[8055d90d486e2c49dabbee8a8c70e760]
reverse link ServletWebServerApplicationContext to AnnotationConfigServletWebServerApplicationContext--><path d="M883.36,282.35 C856.03,298.45 823.9,317.37 799.29,331.86 " fill="none" id="ServletWebServerApplicationContext&lt;-AnnotationConfigServletWebServerApplicationContext" style="stroke: #225C4D; stroke-width: 1.0;"/><polygon fill="none" points="880.16,276.12,900.94,272,887.26,288.18,880.16,276.12" style="stroke: #225C4D; stroke-width: 1.0;"/><!--MD5=[434c21df844756d3835e255599985187]
reverse link ServletWebServerApplicationContext to XmlServletWebServerApplicationContext--><path d="M996.32,282.35 C1023.51,298.45 1055.45,317.37 1079.93,331.86 " fill="none" id="ServletWebServerApplicationContext&lt;-XmlServletWebServerApplicationContext" style="stroke: #225C4D; stroke-width: 1.0;"/><polygon fill="none" points="992.48,288.21,978.84,272,999.62,276.17,992.48,288.21" style="stroke: #225C4D; stroke-width: 1.0;"/><!--MD5=[f2a4d70c4355320fb3d9fe426392120d]
reverse link ConfigurableWebApplicationContext to StaticWebApplicationContext--><path d="M961.6,63.83 C1001.25,80.45 1049.36,100.6 1085.77,115.86 " fill="none" id="ConfigurableWebApplicationContext&lt;-StaticWebApplicationContext" style="stroke: #225C4D; stroke-width: 1.0; stroke-dasharray: 7.0,7.0;"/><polygon fill="none" points="958.64,70.19,942.9,56,964.05,57.27,958.64,70.19" style="stroke: #225C4D; stroke-width: 1.0;"/><!--MD5=[5a781234a537180c6a67b35e8a6feb72]
@startuml
skinparam class {
 BackgroundColor #DDEEE8
 BorderColor #225C4D
 ArrowColor #225C4D
 }
interface ApplicationContext
interface WebApplicationContext
interface ConfigurableWebApplicationContext

ApplicationContext <|. WebApplicationContext
WebApplicationContext <|. ConfigurableWebApplicationContext
ConfigurableWebApplicationContext <|.. AbstractRefreshableWebApplicationContext
AbstractRefreshableWebApplicationContext <|- - AnnotationConfigWebApplicationContext
AbstractRefreshableWebApplicationContext <|- - GroovyWebApplicationContext
AbstractRefreshableWebApplicationContext <|- - XmlWebApplicationContext
ConfigurableWebApplicationContext <|.. GenericWebApplicationContext
GenericWebApplicationContext <|- - ServletWebServerApplicationContext
ServletWebServerApplicationContext <|- - AnnotationConfigServletWebServerApplicationContext
ServletWebServerApplicationContext <|- - XmlServletWebServerApplicationContext
ConfigurableWebApplicationContext <|.. StaticWebApplicationContext
@enduml

PlantUML version 1.2019.12(Sun Nov 03 11:24:54 CET 2019)
(APACHE source distribution)
Java Runtime: OpenJDK Runtime Environment
JVM: OpenJDK 64-Bit Server VM
Java Version: 11.0.16+8-post-Ubuntu-0ubuntu122.04
Operating System: Linux
Default Encoding: UTF-8
Language: de
Country: DE
--></g></svg>